# xmcd
#
# Track frame offsets: 
#        150
#        12610
#        26105
#        42420
#        59495
#        73317
#        85825
#        99955
#        114627
#        129180
#        143842
#        160685
#        172882
#        186067
#        199030
#        210945
#        224802
#        239042
#        256582
#        272817
#        291587
#        311765
#
# Disc length: 4489 seconds
#
# Revision: 7
# Processed by: cddbd v1.5.2PL0 Copyright (c) Steve Scherf et al.
# Submitted via: ExactAudioCopy v0.99pb5
#
DISCID=4f118716
DTITLE=John Lee Hooker - The John Lee Hooker Collection Volume One
DYEAR=1998
DGENRE=Blues
TTITLE0=House Rent Boogie
TTITLE1=Wandering Blues
TTITLE2=Low Down Midnite Boogie
TTITLE3=Goin´ Mad Blues
TTITLE4=Miss Lorraine
TTITLE5=Morning Blues
TTITLE6=Talkin´ Boogie
TTITLE7=Graveyard Blues
TTITLE8=I Love To Boogie
TTITLE9=Do The Boogie
TTITLE10=Prison Bound
TTITLE11=Bumble Bee Blues
TTITLE12=I´m So Worried, Baby
TTITLE13=I See You When You´re Weak
TTITLE14=Mama, You Got A Daughter
TTITLE15=Crazy About That Walk
TTITLE16=We´re All God´s Chillun
TTITLE17=My Own Fault
TTITLE18=Maudie
TTITLE19=Tupelo
TTITLE20=I Wanna Walk
TTITLE21=I Wish You Were Here
EXTD=YEAR: 1998 Hearts of Darkness, England\nDistributed by BMG
EXTT0=
EXTT1=
EXTT2=
EXTT3=
EXTT4=
EXTT5=
EXTT6=
EXTT7=
EXTT8=
EXTT9=
EXTT10=
EXTT11=
EXTT12=
EXTT13=
EXTT14=
EXTT15=
EXTT16=
EXTT17=
EXTT18=
EXTT19=
EXTT20=
EXTT21=
PLAYORDER=
